<svg id="Camada_1" data-name="Camada 1" xmlns="http://www.w3.org/2000/svg" viewBox="0 0 367.66 368.84"><defs><style>.cls-1{fill:#7b3a8e;}.cls-2{fill:#f3e5f2;}</style></defs><path class="cls-1" d="M455.71,713.83V407.35a27.44,27.44,0,0,0-27.18-27.52H404.25V489A9.53,9.53,0,0,1,388,495.72l-28.68-28.67a9.49,9.49,0,0,0-13.41,0l-28.68,28.67a9.18,9.18,0,0,1-10.16,2,9.36,9.36,0,0,1-5.71-8.77V379.82H122.06a27.41,27.41,0,0,0-27.14,27.52V713.83a27.33,27.33,0,0,0,27.13,27.43H428.54A27.35,27.35,0,0,0,455.71,713.83Z" transform="translate(-88.04 -379.82)"/><path class="cls-2" d="M234.23,739.12c-4.34,0-6.94,3.47-10.84,5.2l-25.6-12.58c-1.3-12.58-9.54-27.76-13.44-39.47-6.08-18.22-16.06-35.57-23.86-53.36a42.6,42.6,0,0,0-4.77-10c-4.34,0-8.68,1.31-13,2.17-.43,6.94-1.3,13.89-1.3,21.26,0,6.51,2.6,13.88,2.6,20.82,0,4.77-1.73,10-1.73,15.18,0,10,5.64,18.22,5.64,27.33,0,5.64,0,13.88-3.91,18.66-4.33,2.6-9.11,2.6-13.44,3.9-8.68,2.17-16.49,7.37-25.16,10.41-8.68,0-17.36-7.81-17.36-16.92,0-5.64,1.31-12.14,1.31-17.78,0-7.38-.44-14.75-.44-32.1,0-8.68-.87-17.35-.87-26,0-11.28,3.47-33.4,3.47-50.32,0-7.37-.86-14.31-.86-21.26,0-4.33.43-8.67.43-13,0-9.54-.87-19.52-.87-29.06,0-23,4.34-50.32,4.34-55.1,0-8.24-3.9-15.61-3.9-24.72,0-5.21,1.73-10.85,1.73-16.05s-2.6-10.85-2.6-15.62c1.3-12.58,16-9.54,25.59-10.84,6.08-.87,11.71-2.61,17.35-2.61,6.08,0,13.89,4.78,13.89,11.28,0,2.17-.44,4.34-.44,6.51-2.6,19.52-.87,40.34-3,60.3-.44,4.34-.87,8.67-.87,12.58,0,14.75,3,31.66,3,47.28,0,6.51-.43,12.58-.43,19.09a47.46,47.46,0,0,0,.43,7.8,172.81,172.81,0,0,0,26.47-29.49c3-4.34,8.67-6.51,13-10,4.77-4.34,7.37-10.84,12.58-14.75,6.07-4.77,11.71-9.54,16.92-16.05,4.34-5.2,7.81-11.28,16.05-11.28,10.84,0,12.58,11.28,15.18,19.52,1.74,5.64,5.21,10,7.37,15.19-2.16,16.48-18.21,20.38-28.19,31.66-6.94,7.81-28.63,10.41-28.63,20.82,0,5.64,3.9,23.43,9.11,37.31,6.94,18.22,20,36.87,29.5,50.32,3.9,5.64,5.63,12.58,9.1,18.22,8.25,11.28,22.13,19.52,22.13,26.89,0,8.68-8.68,19.53-17.79,19.53C243.77,740,238.14,739.12,234.23,739.12Zm-118-197.81a56.06,56.06,0,0,0-.87,7.37,37.28,37.28,0,0,0,2.17,11.72,36.84,36.84,0,0,0,.44-6.94,56.84,56.84,0,0,0-1.31-11.72A77.52,77.52,0,0,0,118,527c0-3.47-.44-7.37-.44-11.28a335,335,0,0,1,2.6-41.21c0-7.37.87-14.74.87-26.46-4.77,1.74-6.07,6.51-6.07,11.72-.44,11.71-3.91,23.85-3.91,36,0,10,1.74,20.82,1.74,31.23A36.34,36.34,0,0,0,116.24,541.31Zm5.64,51.62a164.86,164.86,0,0,0-3-25.16c-1.3,5.64-2.6,11.28-2.6,16.92A54.43,54.43,0,0,0,118,596.83Z" transform="translate(-88.04 -379.82)"/><path class="cls-2" d="M357.33,747.36c-11.71,0-16.05-2.6-22.56-3.47-12.58-1.74-21.25-10.85-30.36-16-15.18-8.68-19.52-24.29-20.39-50.75-1.3-11.28-1.3-21.26-1.3-32.1,0-7.81,2.17-15.62,2.17-23.43,0-23.42,3.47-43.38,5.64-51.19,3.47-13,14.75-25.16,17.35-26,5.64-1.74,9.11-6.51,15.18-9.11,10.85-4.34,35.57-5.21,48.15-5.21,9.11,0,27.77,3.9,38.61,8.68,17.79,7.8,24.73,23.42,24.73,42.07,0,6.94-1.74,18.22-2.17,25.16-.87,13.45-1.74,26.47-13,36-5.2,0-13.44,6.51-32.1,6.51-15.61,0-32.1-.87-47.28-.87,0,8.24,0,19.08,3,27.33,4.77,14.31,23,20.38,42.07,20.38,12.58-2.6,16.05-9.54,27.33-9.54,3.91,0,6.51,4.77,10.41,4.77,5.64,0,6.51,8.25,6.51,10.41,0,2.61,2.17,7.38,2.17,10.42,0,17.35-33.84,35.13-49.45,35.13C376.42,746.49,366.87,747.36,357.33,747.36Zm-44.68-81.55c0-6.51-1.3-24.3-1.3-31.24,0-11.27,5.64-30.8,6.51-41.64.43-6.51,2.6-16.48,4.77-19.52a43.92,43.92,0,0,0,5.64-7.81,33.19,33.19,0,0,0,.43-6.94c-5.2,4.34-8.68,13.88-11.28,19.52-5.64,5.21-9.54,29.93-9.54,38.17,0,15.62-.87,29.5-.87,36,0,10,.44,23,3,33.4Zm80.69-61.6c0-3,2.16-10.41,2.16-17.35,0-2.61-3-11.72-7.37-13.45-2.17-5.21-10.41-6.94-17.35-6.94-13.88,0-17.79,6.51-23,9.54-6.94,10.85-6.08,24.29-6.51,34.71,6.94,1.73,21.69,2.16,29.06,2.16C386.83,612.88,393.34,609.85,393.34,604.21ZM349.52,717c4.77.87,11.28,5.21,16.49,5.21,9.54,0,23-5.64,26.46-9.11-10.41,3-20,4.34-25.16,4.34-8.68,0-17.79-3.47-20.82-4.34Z" transform="translate(-88.04 -379.82)"/></svg>