<svg id="Camada_1" data-name="Camada 1" xmlns="http://www.w3.org/2000/svg" viewBox="0 0 913.59 371.44"><defs><style>.cls-1{fill:#f3e6f2;}.cls-2{fill:#7b3a8e;}.cls-3{fill:#f3e5f2;}.cls-4{fill:#484a48;}</style></defs><rect class="cls-1" x="187.27" width="149.04" height="124.4"/><path class="cls-2" d="M455.71,713.83V407.35a27.44,27.44,0,0,0-27.18-27.52H404.25V489A9.53,9.53,0,0,1,388,495.72l-28.68-28.67a9.49,9.49,0,0,0-13.41,0l-28.68,28.67a9.18,9.18,0,0,1-10.16,2,9.36,9.36,0,0,1-5.71-8.77V379.82H122.06a27.41,27.41,0,0,0-27.14,27.52V713.83a27.33,27.33,0,0,0,27.13,27.43H428.54A27.35,27.35,0,0,0,455.71,713.83Z" transform="translate(-88.04 -379.82)"/><path class="cls-3" d="M234.23,739.12c-4.34,0-6.94,3.47-10.84,5.2l-25.6-12.58c-1.3-12.58-9.54-27.76-13.44-39.47-6.08-18.22-16.06-35.57-23.86-53.36a42.6,42.6,0,0,0-4.77-10c-4.34,0-8.68,1.31-13,2.17-.43,6.94-1.3,13.89-1.3,21.26,0,6.51,2.6,13.88,2.6,20.82,0,4.77-1.73,10-1.73,15.18,0,10,5.64,18.22,5.64,27.33,0,5.64,0,13.88-3.91,18.66-4.33,2.6-9.11,2.6-13.44,3.9-8.68,2.17-16.49,7.37-25.16,10.41-8.68,0-17.36-7.81-17.36-16.92,0-5.64,1.31-12.14,1.31-17.78,0-7.38-.44-14.75-.44-32.1,0-8.68-.87-17.35-.87-26,0-11.28,3.47-33.4,3.47-50.32,0-7.37-.86-14.31-.86-21.26,0-4.33.43-8.67.43-13,0-9.54-.87-19.52-.87-29.06,0-23,4.34-50.32,4.34-55.1,0-8.24-3.9-15.61-3.9-24.72,0-5.21,1.73-10.85,1.73-16.05s-2.6-10.85-2.6-15.62c1.3-12.58,16-9.54,25.59-10.84,6.08-.87,11.71-2.61,17.35-2.61,6.08,0,13.89,4.78,13.89,11.28,0,2.17-.44,4.34-.44,6.51-2.6,19.52-.87,40.34-3,60.3-.44,4.34-.87,8.67-.87,12.58,0,14.75,3,31.66,3,47.28,0,6.51-.43,12.58-.43,19.09a47.46,47.46,0,0,0,.43,7.8,172.81,172.81,0,0,0,26.47-29.49c3-4.34,8.67-6.51,13-10,4.77-4.34,7.37-10.84,12.58-14.75,6.07-4.77,11.71-9.54,16.92-16.05,4.34-5.2,7.81-11.28,16.05-11.28,10.84,0,12.58,11.28,15.18,19.52,1.74,5.64,5.21,10,7.37,15.19-2.16,16.48-18.21,20.38-28.19,31.66-6.94,7.81-28.63,10.41-28.63,20.82,0,5.64,3.9,23.43,9.11,37.31,6.94,18.22,20,36.87,29.5,50.32,3.9,5.64,5.63,12.58,9.1,18.22,8.25,11.28,22.13,19.52,22.13,26.89,0,8.68-8.68,19.53-17.79,19.53C243.77,740,238.14,739.12,234.23,739.12Zm-118-197.81a56.06,56.06,0,0,0-.87,7.37,37.28,37.28,0,0,0,2.17,11.72,36.84,36.84,0,0,0,.44-6.94,56.84,56.84,0,0,0-1.31-11.72A77.52,77.52,0,0,0,118,527c0-3.47-.44-7.37-.44-11.28a335,335,0,0,1,2.6-41.21c0-7.37.87-14.74.87-26.46-4.77,1.74-6.07,6.51-6.07,11.72-.44,11.71-3.91,23.85-3.91,36,0,10,1.74,20.82,1.74,31.23A36.34,36.34,0,0,0,116.24,541.31Zm5.64,51.62a164.86,164.86,0,0,0-3-25.16c-1.3,5.64-2.6,11.28-2.6,16.92A54.43,54.43,0,0,0,118,596.83Z" transform="translate(-88.04 -379.82)"/><path class="cls-3" d="M357.33,747.36c-11.71,0-16.05-2.6-22.56-3.47-12.58-1.74-21.25-10.85-30.36-16-15.18-8.68-19.52-24.29-20.39-50.75-1.3-11.28-1.3-21.26-1.3-32.1,0-7.81,2.17-15.62,2.17-23.43,0-23.42,3.47-43.38,5.64-51.19,3.47-13,14.75-25.16,17.35-26,5.64-1.74,9.11-6.51,15.18-9.11,10.85-4.34,35.57-5.21,48.15-5.21,9.11,0,27.77,3.9,38.61,8.68,17.79,7.8,24.73,23.42,24.73,42.07,0,6.94-1.74,18.22-2.17,25.16-.87,13.45-1.74,26.47-13,36-5.2,0-13.44,6.51-32.1,6.51-15.61,0-32.1-.87-47.28-.87,0,8.24,0,19.08,3,27.33,4.77,14.31,23,20.38,42.07,20.38,12.58-2.6,16.05-9.54,27.33-9.54,3.91,0,6.51,4.77,10.41,4.77,5.64,0,6.51,8.25,6.51,10.41,0,2.61,2.17,7.38,2.17,10.42,0,17.35-33.84,35.13-49.45,35.13C376.42,746.49,366.87,747.36,357.33,747.36Zm-44.68-81.55c0-6.51-1.3-24.3-1.3-31.24,0-11.27,5.64-30.8,6.51-41.64.43-6.51,2.6-16.48,4.77-19.52a43.92,43.92,0,0,0,5.64-7.81,33.19,33.19,0,0,0,.43-6.94c-5.2,4.34-8.68,13.88-11.28,19.52-5.64,5.21-9.54,29.93-9.54,38.17,0,15.62-.87,29.5-.87,36,0,10,.44,23,3,33.4Zm80.69-61.6c0-3,2.16-10.41,2.16-17.35,0-2.61-3-11.72-7.37-13.45-2.17-5.21-10.41-6.94-17.35-6.94-13.88,0-17.79,6.51-23,9.54-6.94,10.85-6.08,24.29-6.51,34.71,6.94,1.73,21.69,2.16,29.06,2.16C386.83,612.88,393.34,609.85,393.34,604.21ZM349.52,717c4.77.87,11.28,5.21,16.49,5.21,9.54,0,23-5.64,26.46-9.11-10.41,3-20,4.34-25.16,4.34-8.68,0-17.79-3.47-20.82-4.34Z" transform="translate(-88.04 -379.82)"/><path class="cls-4" d="M465.91,730.44c0-11.28,7.81-21.25,7.81-32.1,0-7.37-1.3-14.31-1.3-21.69,0-29.06,3.47-56.82,3.47-85,0-12.58-2.61-25.16-2.61-37.31,0-23.42,2.17-48.15,2.17-72.44,0-8.24-.86-16.48-.86-24.29,0-5.64.86-11.28.86-16.92,0-10,0-12.58.44-15.18.86-3.91,19.08-13.89,27.76-13.89,20.39,0,34.7.44,34.7,15.62,0,13.45-7.81,27.33-7.81,41.65,0,22.55-2.6,34.7-2.6,46.84a67.07,67.07,0,0,0,2.6,18.66H544c27.33,0,60.73,14.31,70.28,39.91,5.2,13,9.54,27.33,9.54,41.21a160.27,160.27,0,0,1-1.3,20.38c-1.3,8.25-4.34,16.49-4.34,25.17,0,36-1.3,38.6-14.75,54.65-18.22,22.13-39.91,17.35-60.29,23.43-13.45,4.34-27.33,7.37-43.38,7.37C486.73,746.49,465.91,744.32,465.91,730.44Zm43.38-293.68-7.81,2.61a478.13,478.13,0,0,0-6.07,75c0,16.92-.44,23-.44,29.5a36.79,36.79,0,0,0,.44,6.94c9.11-4.77,11.28-18.22,11.28-24.72,0-8.68-1.74-17.79-1.74-24.3,0-10,2.17-19.52,2.17-29.06,0-16.92,0-20,.87-23.43A62.41,62.41,0,0,0,509.29,436.76Zm-7.38,139.69c0-8.25-.43-13.89-5.2-21.69-.87,6.5-1.74,12.14-1.74,18.22a32.32,32.32,0,0,0,.87,9.1c1.74,8.25,1.3,16.92,2.17,25.6,1.74-4.34,3.47-8.68,3.47-12.58C501.48,587.72,501.48,582.08,501.91,576.45Zm75.48,52.48c0-17.78-1.3-35.13-10.41-47.71-1.73-3.91-11.27-3.91-21.69-3.91-6.5,0-16.48-.43-21.25-.43-.87,13.45-3.47,27.33-3.47,51.19,0,13-2.17,26.46-2.17,39.47,0,9.55,0,19.52,3,29.07,18.65-3,38.17-7.38,51.62-19.52C577,673.62,577.39,664.07,577.39,628.93Z" transform="translate(-88.04 -379.82)"/><path class="cls-4" d="M684.1,746.06c-9.54-4.77-23.42-4.34-23.42-18.22a34,34,0,0,1,1.73-9.54c2.17-22.13,2.61-42.95,2.61-65.51V641.08c0-10.41,3-20.39,3-30.36,0-9.55-1.3-18.66-1.3-28.64,0-25.59,0-34.26,3.91-51.18,7.8,0,14.75,2.6,21.25,2.6,6.08,0,12.15-2.17,18.22-2.17,10.41,0,15.18,6.51,15.18,14.75,0,11.28-6.07,21.69-6.07,33.4,8.68-5.64,16-11.28,22.56-18.65,15.61-16.92,32.53-23,46.85-29.5,3.47-1.73,12.14-3,16.48-3,7.81,0,9.54,5.64,12.15,10a36.89,36.89,0,0,1,3.9,16.49c0,9.54-4.34,22.55-12.14,24.72-10.41,3-21.26,3-31.67,6.08-6.94,1.73-13.88,7.8-18.22,13-8.24,6.07-15.62,17.78-20.82,26.46C731,637.18,717.94,655,717.94,666.24c0,5.21,1.73,11.71,2.17,19.09.87,16.48,9.54,39.91,9.54,50.32,0,9.54-26,14.31-30.36,14.31C694.08,750,689.31,747.36,684.1,746.06Zm11.28-38.18c-.43-8.24-5.64-15.61-5.64-23.85,0-5.64.44-11.28.44-30.37,0-6.94.86-13.88.86-20.82,0-4.34,0-10.41-3.9-12.58-2.17,3.47-4.77,6.94-5.21,11.28,0,6.07,1.31,12.58,1.31,18.65,0,6.94-1.31,14.32-1.31,23.86,0,9.11-.43,18.22-.43,26.89,0,7.38,1.74,16.92,9.54,20.39C692.35,717,695.38,712.66,695.38,707.88ZM684.54,605.51a37.68,37.68,0,0,0,2.6,13.88c2.17-6.51,2.6-13.45,2.6-20.39V587.72c0-6.5.44-13,.44-19.52a69.32,69.32,0,0,0-.44-9.54c-3,5.64-3.47,11.28-3.47,17.35v10a64.63,64.63,0,0,1-.43,9.11A42.65,42.65,0,0,0,684.54,605.51Z" transform="translate(-88.04 -379.82)"/><path class="cls-4" d="M853.71,541.74c10.85-6.94,25.16-10,35.14-10,3.9,0,15.61-1.31,21.25-1.74,18.66,2.17,38.61,2.6,51.19,15.62,5.64,5.64,12.58,13,16.05,20.39,5.21,10.41,7.38,30.79,7.38,45.54C983.42,619,983,642,983,651.93c0,7.37,0,22.12,2.6,29.93,3.47,10.84,3.91,19.08,13.45,42.51,1.3,3,2.6,6.51,2.6,10,0,7.8-17.78,9.54-17.78,13-2.6,3.9-13.88,3.9-19.52,3.9-10.85,0-20-10.84-23.43-21.69-3.9,0-5.64,1.74-6.94,4.34-5.2,3-11.28,6.08-13,6.08-3,0-10.41,7.37-23.43,7.37-15.61,0-27.32-6.51-29.93-6.51-20.39-5.2-33.4-24.72-33.4-42.51,0-10,1.3-28.2,1.3-33.83,0-7.81.87-24.73,4.34-32.54,8.24-17.78,32.53-20,56.83-20,10.41,0,20.82,0,29.49-.44,0-11.28-6.94-32.53-12.58-35.57-5.2-2.6-14.31-2.6-17.35-3.9-7.37,0-17.78,1.73-21.69,6.07-8.67.87-15.18,6.94-21.69,6.94-4.77,0-13.88-14.31-13.88-19.08a33.82,33.82,0,0,1,.87-6.51,10.9,10.9,0,0,1-.43-3.91C839.4,550.85,849.37,543.91,853.71,541.74Zm0,146.62c0,11.72,1.74,22.56,13.88,28.2-6.5-6.94-8.67-16.48-8.67-24.29,0-5.64-.87-12.15-3.47-12.15Zm3-19.08c.87,0,1.73-6.08,1.73-8.24s-.86-3-1.73-3-1.3.87-1.3,3S855.88,669.28,856.75,669.28Zm71.14,20.82c0-2.17-1.3-5.21-1.3-16.92V645c-2.17,0-3.91,2.16-9.55,2.16a24.31,24.31,0,0,1-7.37-.86c-16.48,0-23,.43-26.89,8.24-3.91,1.73-5.21,25.16-5.21,32.53,0,12.15,9.11,20.82,17.35,20.82,10,0,22.56-5.2,27.76-9.1C927,695.3,927.89,693.14,927.89,690.1Zm28.2-42.51c0-6.94.86-22.56.86-44.25,0-5.2-5.64-35.57-18.65-35.57,9.11,9.54,11.71,25.59,11.71,42.51,0,13.88,1.3,27.76,1.3,41.65,0,5.2,1.31,23,4.34,32.53C956.09,674.92,956.09,655.83,956.09,647.59Z" transform="translate(-88.04 -379.82)"/></svg>